<svg xmlns="http://www.w3.org/2000/svg" version="1.1" xmlns:xlink="http://www.w3.org/1999/xlink"
    xmlns:svgjs="http://svgjs.dev/svgjs" width="2000" height="1500" viewBox="0 0 2000 1500">
    
    <g transform="matrix(0.75,0,0,0.75,250,281.25)"><svg viewBox="0 0 512 320" data-background-color="#ffffff"
            preserveAspectRatio="xMidYMid meet" height="1250" width="2000" xmlns="http://www.w3.org/2000/svg"
            xmlns:xlink="http://www.w3.org/1999/xlink">
            <g id="tight-bounds" transform="matrix(1,0,0,1,0,0)"><svg viewBox="0 0 512 320" height="320" width="512">
                    <g><svg></svg></g>
                    <g><svg viewBox="0 0 512 320" height="320" width="512">
                            <g>
                                <path
                                    d="M96 160c0-88.366 71.634-160 160-160 88.366 0 160 71.634 160 160 0 88.366-71.634 160-160 160-88.366 0-160-71.634-160-160z"
                                    fill="#729343" fill-rule="nonzero" stroke="none" stroke-width="1"
                                    stroke-linecap="butt" stroke-linejoin="miter" stroke-miterlimit="10"
                                    stroke-dasharray="" stroke-dashoffset="0" font-family="none" font-weight="none"
                                    font-size="none" text-anchor="none" style="mix-blend-mode: normal"
                                    data-fill-palette-color="tertiary"></path>
                            </g>
                            <g transform="matrix(1,0,0,1,191.4397950469684,80)"><svg viewBox="0 0 129.1204099060632 160"
                                    height="160" width="129.1204099060632">
                                    <g><svg viewBox="0 0 129.1204099060632 160" height="160" width="129.1204099060632">
                                            <g><svg viewBox="0 0 129.1204099060632 160" height="160"
                                                    width="129.1204099060632">
                                                    <g id="textblocktransform"><svg viewBox="0 0 129.1204099060632 160"
                                                            height="160" width="129.1204099060632" id="textblock">
                                                            <g><svg viewBox="0 0 129.1204099060632 160" height="160"
                                                                    width="129.1204099060632">
                                                                    <g transform="matrix(1,0,0,1,0,0)"><svg
                                                                            width="129.1204099060632"
                                                                            viewBox="3 -28.59 23.07 28.59" height="160"
                                                                            data-palette-color="#fffffd">
                                                                            <path
                                                                                d="M12.99-28.59L4.59-28.59Q4.03-28.59 3.7-28.27 3.37-27.95 3.37-27.51L3.37-27.51Q3.37-27.1 3.69-26.79 4-26.49 4.57-26.49L4.57-26.49 8.45-26.49 8.45-2.1 4.22-2.1Q3.66-2.1 3.33-1.78 3-1.46 3-1.05L3-1.05Q3-0.61 3.33-0.31 3.66 0 4.25 0L4.25 0 18.8 0Q19.38 0 19.7-0.31 20.02-0.61 20.02-1.05L20.02-1.05Q20.02-1.46 19.7-1.78 19.38-2.1 18.82-2.1L18.82-2.1 10.79-2.1 10.79-12.87 13.62-12.87Q17.6-12.87 20.15-13.32 22.71-13.77 24.39-15.47 26.07-17.16 26.07-20.68L26.07-20.68Q26.07-24.19 24.29-25.92 22.51-27.64 19.81-28.11 17.11-28.59 12.99-28.59L12.99-28.59ZM14.5-14.82L10.79-14.82 10.79-26.49 13.48-26.49Q16.67-26.49 18.73-26.2 20.78-25.9 22.25-24.61 23.73-23.32 23.73-20.58L23.73-20.58Q23.73-17.99 22.5-16.74 21.26-15.48 19.37-15.15 17.48-14.82 14.5-14.82L14.5-14.82Z"
                                                                                opacity="1"
                                                                                transform="matrix(1,0,0,1,0,0)"
                                                                                fill="#fffffd" class="wordmark-text-0"
                                                                                data-fill-palette-color="quaternary"
                                                                                id="text-0"></path>
                                                                        </svg></g>
                                                                </svg></g>
                                                        </svg></g>
                                                </svg></g>
                                        </svg></g>
                                </svg></g>
                        </svg></g>
                    <defs></defs>
                </svg>
            </g>
        </svg></g>
</svg>