<?xml version="1.0" encoding="UTF-8"?>
<svg version="1.1" xmlns="http://www.w3.org/2000/svg" width="512" height="512">
<path d="M0 0 C1.30177874 0.00129972 1.30177874 0.00129972 2.62985605 0.0026257 C4.00231223 -0.00183098 4.00231223 -0.00183098 5.40249479 -0.0063777 C8.49423636 -0.01510663 11.5859394 -0.01657657 14.67769235 -0.01806521 C16.88517713 -0.02269108 19.0926611 -0.02771542 21.30014414 -0.03311038 C27.32216518 -0.04627409 33.34417505 -0.0526891 39.36620826 -0.05712104 C43.1352034 -0.06005037 46.90419549 -0.06415531 50.6731891 -0.06862521 C61.12762568 -0.08074983 71.58206044 -0.09112207 82.03650373 -0.0945003 C82.70654648 -0.09471987 83.37658923 -0.09493944 84.06693631 -0.09516566 C84.73854533 -0.09538393 85.41015435 -0.09560221 86.10211515 -0.0958271 C87.46291953 -0.09627056 88.82372391 -0.09671712 90.18452829 -0.09716678 C90.85952751 -0.09738821 91.53452672 -0.09760964 92.22998046 -0.09783778 C103.10983169 -0.10176573 113.98961511 -0.11915097 124.86944026 -0.1425263 C136.06574955 -0.16638455 147.26203437 -0.17845243 158.45837152 -0.17986822 C164.73352477 -0.18091004 171.00858288 -0.1866816 177.28371233 -0.20468783 C183.20903091 -0.2213555 189.13418487 -0.22323484 195.05951875 -0.21454883 C197.21510762 -0.21378786 199.37070601 -0.21799408 201.52627176 -0.22800708 C220.86383793 -0.31243568 240.20722759 1.15104684 259.01533884 5.8930676 C260.56438913 6.27604001 260.56438913 6.27604001 262.14473337 6.66674924 C270.91916692 8.93396865 278.99370543 11.94125962 287.01533884 16.1430676 C287.99115915 16.65224729 288.96697946 17.16142697 289.97237009 17.68603635 C304.2693253 25.96967993 315.38274355 39.01561028 320.19893259 54.83447385 C327.07817683 82.71351632 321.36129991 111.87563931 307.51533884 136.5805676 C284.52464445 174.43857769 243.94015667 193.34652799 202.46992868 203.7836926 C173.91332914 210.54184048 144.52491074 211.32461097 115.32783884 211.2055676 C113.15010551 211.20053594 110.97237103 211.19597602 108.79463571 211.19189572 C103.5348429 211.18189992 98.27510083 211.16317315 93.01533884 211.1430676 C92.78187753 212.28096738 92.54841623 213.41886716 92.30788034 214.59124875 C90.02057055 225.64843091 87.52741348 236.64218074 84.88850015 247.62030911 C83.76735918 252.29484313 82.66228275 256.97318932 81.55440134 261.6508801 C80.15889936 267.54014494 78.75868221 273.42815548 77.34053415 279.31201291 C76.18006812 284.12863119 75.03631374 288.94895952 73.90322489 293.77208829 C73.47385872 295.58650207 73.03862427 297.39953907 72.59699625 299.21100736 C67.69650216 317.30981002 67.69650216 317.30981002 70.51533884 335.2680676 C79.52704384 345.63152835 93.06289512 346.4831667 105.93013376 348.05371213 C106.815478 348.1669885 107.70082224 348.28026486 108.61299509 348.39697385 C109.4122944 348.49308957 110.21159372 348.58920529 111.03511423 348.68823361 C113.01533884 349.1430676 113.01533884 349.1430676 115.01533884 351.1430676 C114.87520212 353.114259 114.87520212 353.114259 114.33565134 355.4946301 C114.14873728 356.34541135 113.96182321 357.1961926 113.76924509 358.0727551 C113.56170603 358.96220822 113.35416696 359.85166135 113.14033884 360.7680676 C112.94053415 361.6652551 112.74072946 362.5624426 112.53487009 363.4868176 C112.03862647 365.70809855 111.53173925 367.92640143 111.01533884 370.1430676 C88.71858425 370.49429321 66.42228906 370.75838005 44.12332433 370.92025018 C33.76810756 370.99742613 23.41461464 371.1025347 13.06050485 371.2746594 C4.03011348 371.42470661 -4.9990291 371.52106468 -14.0306325 371.55439502 C-18.80860081 371.57386514 -23.58299847 371.61922515 -28.35981566 371.72901845 C-61.32816829 372.45779552 -61.32816829 372.45779552 -69.8124724 364.96689057 C-72.63411066 361.90287987 -74.87941303 358.72727606 -76.98466116 355.1430676 C-77.75469036 353.97632066 -78.53104906 352.81371084 -79.31548697 351.65660214 C-80.14172819 350.41240254 -80.14172819 350.41240254 -80.98466116 349.1430676 C-80.20453665 349.04807981 -79.42441214 348.95309201 -78.62064749 348.8552258 C-75.01046631 348.4057205 -71.40404493 347.93078045 -67.79716116 347.4555676 C-66.57061819 347.30668088 -65.34407522 347.15779416 -64.08036429 347.00439572 C-53.48599357 345.578768 -41.47530816 343.36450943 -33.98466116 335.1430676 C-28.81841263 327.94101045 -26.44579554 320.80593778 -24.50761038 312.2290051 C-24.2168607 311.00587613 -23.92611101 309.78274716 -23.62655073 308.52255368 C-22.72975341 304.73296889 -21.85627776 300.93851235 -20.98466116 297.1430676 C-20.45441303 294.88653682 -19.9227465 292.63033876 -19.38950735 290.37451291 C-17.77360606 283.51144673 -16.194449 276.6401635 -14.61747366 269.7680676 C-14.0228797 267.18632044 -13.42806373 264.60462539 -12.83295828 262.02299619 C-11.41182485 255.8559514 -9.99325544 249.68831999 -8.57568568 243.52045518 C-5.91950755 231.96400131 -3.25800407 220.40877224 -0.59694582 208.8534413 C0.25238377 205.16532706 1.10159624 201.47718595 1.95053476 197.78898168 C6.47141353 178.14858841 11.01231636 158.51297862 15.57975 138.88335919 C16.46561738 135.07560215 17.35086373 131.26770128 18.23588938 127.45974851 C18.80836413 124.99676528 19.38084332 122.53378309 19.95332712 120.07080197 C20.23097343 118.87625331 20.50861974 117.68170465 20.79467958 116.45095754 C22.42259945 109.44898321 24.05464629 102.44798608 25.68953508 95.44763589 C26.69706836 91.12901556 27.70064473 86.80948273 28.70316309 82.48969579 C29.16273568 80.51329418 29.62398801 78.53728223 30.08712763 76.56171346 C35.72236303 57.33043808 35.72236303 57.33043808 34.01533884 38.1430676 C32.49980731 35.84140085 32.49980731 35.84140085 31.01533884 34.1430676 C31.01533884 33.4830676 31.01533884 32.8230676 31.01533884 32.1430676 C30.29733103 31.86205197 29.57932321 31.58103635 28.83955759 31.2915051 C27.05462203 30.56568068 25.28341859 29.80419429 23.53487009 28.9946301 C12.875074 24.16465034 1.52298519 21.96967813 -9.98466116 20.1430676 C-8.38994434 0.0412424 -8.38994434 0.0412424 0 0 Z M136.01533884 23.1430676 C132.30503457 39.03844131 128.59678902 54.93429475 124.89033884 70.8305676 C124.61726907 72.00170732 124.34419931 73.17284703 124.06285471 74.37947583 C115.30340404 111.94987096 106.5915069 149.53037409 98.01533884 187.1430676 C132.79940117 187.37676166 164.97385879 184.66028764 191.70283884 159.8930676 C212.98263619 137.31887868 219.33836131 105.23607199 219.01533884 75.1430676 C218.38630329 60.57145913 214.10380973 48.60985228 204.76533884 37.4555676 C189.17872911 24.34864578 170.7188057 22.78423777 151.20283884 23.0180676 C149.7204231 23.02813108 148.23800065 23.0372509 146.75557321 23.04541135 C143.17535209 23.06712684 139.59539076 23.10146514 136.01533884 23.1430676 Z " fill="#5F39B5" transform="translate(139.98466116189957,70.8569324016571)"/>
</svg>
